<svg width="24" height="24" viewBox="0 0 24 24" fill="none" xmlns="http://www.w3.org/2000/svg">
<path d="M17.53 8.35392C17.46 8.34429 17.39 8.34429 17.32 8.35392C15.77 8.30578 14.54 7.083 14.54 5.58101C14.54 4.05013 15.83 2.79846 17.43 2.79846C19.02 2.79846 20.32 4.0405 20.32 5.58101C20.31 7.083 19.08 8.30578 17.53 8.35392Z" fill="#292D32"/>
<path d="M20.79 15.0262C19.67 15.7483 18.1 16.0179 16.65 15.835C17.03 15.0455 17.23 14.1693 17.24 13.245C17.24 12.2822 17.02 11.3675 16.6 10.5684C18.08 10.3758 19.65 10.6454 20.78 11.3675C22.36 12.3689 22.36 14.0153 20.79 15.0262Z" fill="#292D32"/>
<path d="M6.43997 8.35392C6.50997 8.34429 6.57997 8.34429 6.64997 8.35392C8.19997 8.30578 9.42997 7.083 9.42997 5.58101C9.42997 4.0405 8.13997 2.79846 6.53997 2.79846C4.94997 2.79846 3.65997 4.0405 3.65997 5.58101C3.65997 7.083 4.88997 8.30578 6.43997 8.35392Z" fill="#292D32"/>
<path d="M6.55 13.245C6.55 14.1789 6.75999 15.0647 7.14 15.8639C5.73 16.0083 4.26 15.7195 3.18 15.0359C1.6 14.0249 1.6 12.3785 3.18 11.3675C4.25 10.6743 5.75999 10.3951 7.18 10.5491C6.77 11.3579 6.55 12.2726 6.55 13.245Z" fill="#292D32"/>
<path d="M12.12 16.1527C12.04 16.1431 11.95 16.1431 11.86 16.1527C10.02 16.0949 8.54999 14.6411 8.54999 12.8502C8.55999 11.0209 10.09 9.53815 12 9.53815C13.9 9.53815 15.44 11.0209 15.44 12.8502C15.43 14.6411 13.97 16.0949 12.12 16.1527Z" fill="#292D32"/>
<path d="M8.86999 18.1457C7.35999 19.1182 7.35999 20.7165 8.86999 21.6793C10.59 22.7865 13.41 22.7865 15.13 21.6793C16.64 20.7068 16.64 19.1086 15.13 18.1457C13.42 17.0385 10.6 17.0385 8.86999 18.1457Z" fill="#292D32"/>
</svg>
